HIERARCHY
ROOT Pelvis
{
	OFFSET 0.000000 0.941512 0.000000
	CHANNELS 6 Xposition Yposition Zposition Zrotation Yrotation Xrotation 
	JOINT Pelvis_L_Hip
	{
		OFFSET 0.000000 0.000000 0.000000
		CHANNELS 3 Zrotation Yrotation Xrotation
		JOINT L_Hip
		{
			OFFSET 0.062321 -0.080322 -0.016990
			CHANNELS 3 Zrotation Yrotation Xrotation
			JOINT L_Knee
			{
				OFFSET 0.093051 -0.381305 -0.029784
				CHANNELS 3 Zrotation Yrotation Xrotation
				JOINT L_Ankle
				{
					OFFSET -0.010371 -0.431000 -0.033614
					CHANNELS 3 Zrotation Yrotation Xrotation
					End Site #name: L_Foot
					{
						OFFSET 0.069299 -0.038670 0.119418
					}
				}
			}
		}
	}
	JOINT Pelvis_R_Hip
	{
		OFFSET 0.000000 0.000000 0.000000
		CHANNELS 3 Zrotation Yrotation Xrotation
		JOINT R_Hip
		{
			OFFSET -0.055334 -0.094904 -0.002373
			CHANNELS 3 Zrotation Yrotation Xrotation
			JOINT R_Knee
			{
				OFFSET -0.064207 -0.384370 -0.019592
				CHANNELS 3 Zrotation Yrotation Xrotation
				JOINT R_Ankle
				{
					OFFSET 0.025418 -0.419734 -0.065953
					CHANNELS 3 Zrotation Yrotation Xrotation
					End Site #name: R_Foot
					{
						OFFSET -0.057233 -0.039888 0.132134
					}
				}
			}
		}
	}
	JOINT Pelvis_Spine1
	{
		OFFSET 0.000000 0.000000 0.000000
		CHANNELS 3 Zrotation Yrotation Xrotation
		JOINT Spine1
		{
			OFFSET -0.005562 0.124093 -0.043360
			CHANNELS 3 Zrotation Yrotation Xrotation
			JOINT Spine2
			{
				OFFSET 0.012244 0.139499 0.029894
				CHANNELS 3 Zrotation Yrotation Xrotation
				JOINT Spine3
				{
					OFFSET -0.002556 0.056561 0.009225
					CHANNELS 3 Zrotation Yrotation Xrotation
					JOINT Spine3_Neck
					{
						OFFSET 0.000000 0.000000 0.000000
						CHANNELS 3 Zrotation Yrotation Xrotation
						JOINT Neck
						{
							OFFSET -0.005205 0.217920 -0.024551
							CHANNELS 3 Zrotation Yrotation Xrotation
							End Site #name: Head
							{
								OFFSET 0.002365 0.091850 0.046637
							}
						}
					}
					JOINT Spine3_L_Collar
					{
						OFFSET 0.000000 0.000000 0.000000
						CHANNELS 3 Zrotation Yrotation Xrotation
						JOINT L_Collar
						{
							OFFSET 0.072225 0.116603 -0.009480
							CHANNELS 3 Zrotation Yrotation Xrotation
							JOINT L_Shoulder
							{
								OFFSET 0.115937 -0.058643 -0.021018
								CHANNELS 3 Zrotation Yrotation Xrotation
								JOINT L_Elbow
								{
									OFFSET 0.021994 -0.254722 -0.024492
									CHANNELS 3 Zrotation Yrotation Xrotation
									End Site #name: L_Wrist
									{
										OFFSET 0.048810 -0.240214 0.103329
									}
								}
							}
						}
					}
					JOINT Spine3_R_Collar
					{
						OFFSET 0.000000 0.000000 0.000000
						CHANNELS 3 Zrotation Yrotation Xrotation
						JOINT R_Collar
						{
							OFFSET -0.073372 0.120704 -0.024611
							CHANNELS 3 Zrotation Yrotation Xrotation
							JOINT R_Shoulder
							{
								OFFSET -0.108089 -0.054969 -0.020504
								CHANNELS 3 Zrotation Yrotation Xrotation
								JOINT R_Elbow
								{
									OFFSET -0.033684 -0.260739 0.009889
									CHANNELS 3 Zrotation Yrotation Xrotation
									End Site #name: R_Wrist
									{
										OFFSET -0.067980 -0.232763 0.118463
									}
								}
							}
						}
					}
				}
			}
		}
	}
}
MOTION
Frames: 10
Frame Time: 0.041667
0.006021 0.971611 0.007413 -2.113846 2.473895 5.972451 0.000000 0.000000 0.000000 -4.206524 -1.945436 -8.334740 7.551258 -1.018315 4.765297 -11.550392 -17.503013 8.870724 0.000000 0.000000 0.000000 3.001298 1.185533 -6.994121 -3.967189 0.582876 -0.525640 6.122474 8.237676 7.554053 0.000000 0.000000 0.000000 4.390599 1.692179 -21.387202 -9.306161 5.076043 27.026250 6.590712 5.912786 -20.666898 0.000000 0.000000 0.000000 -5.115435 2.438017 14.003442 0.000000 0.000000 0.000000 31.011482 -10.834523 -2.100748 -9.602628 -3.792848 -24.444642 -9.245576 -34.867103 -64.995558 0.000000 0.000000 0.000000 -29.164582 7.693116 -1.265873 23.099174 1.541139 0.518300 2.457088 52.895682 -80.109433 
0.008284 0.971847 0.010425 -2.206799 2.432616 6.074881 0.000000 0.000000 0.000000 -4.194132 -1.920790 -8.250549 7.473105 -1.015190 4.832529 -11.463044 -17.619669 8.702040 0.000000 0.000000 0.000000 2.948047 1.192355 -7.032121 -3.975982 0.606598 -0.290066 6.176091 8.471034 7.499358 0.000000 0.000000 0.000000 4.424302 1.704659 -21.498821 -8.975112 4.952697 27.124572 6.372840 5.534041 -20.813319 0.000000 0.000000 0.000000 -4.004729 1.776183 13.332411 0.000000 0.000000 0.000000 30.901354 -10.999117 -2.345466 -10.095179 -3.657418 -23.322711 -9.169454 -35.226915 -65.592086 0.000000 0.000000 0.000000 -28.997473 7.532443 -1.079307 22.853111 1.502905 0.578639 3.602907 53.178448 -78.545575 
0.010579 0.972118 0.013488 -2.337410 2.370585 6.187072 0.000000 0.000000 0.000000 -4.146192 -1.898742 -8.173769 7.425461 -1.015073 4.892775 -11.383824 -17.741363 8.542828 0.000000 0.000000 0.000000 2.922066 1.209303 -7.122686 -3.953027 0.631929 0.017210 6.257083 8.748943 7.466770 0.000000 0.000000 0.000000 4.539480 1.730730 -21.744448 -8.522513 4.806082 27.439216 6.016510 5.089673 -21.025662 0.000000 0.000000 0.000000 -2.925141 1.147752 12.723561 0.000000 0.000000 0.000000 30.699933 -11.075287 -2.527964 -10.584695 -3.488846 -22.066198 -8.837698 -35.405256 -66.428947 0.000000 0.000000 0.000000 -28.891578 7.334632 -0.844348 22.815402 1.509310 0.565821 4.604385 52.928684 -76.837508 
0.012302 0.972400 0.016655 -2.512877 2.335553 6.319324 0.000000 0.000000 0.000000 -4.043529 -1.867555 -8.062270 7.402753 -1.007186 4.833899 -11.284435 -17.805569 8.381222 0.000000 0.000000 0.000000 2.986529 1.210879 -7.132563 -3.935544 0.640375 0.137457 6.320316 8.973719 7.437843 0.000000 0.000000 0.000000 4.581193 1.737569 -21.808162 -8.176005 4.646448 27.325991 5.970873 4.727126 -21.182131 0.000000 0.000000 0.000000 -1.954498 0.593603 12.216245 0.000000 0.000000 0.000000 30.397651 -11.034721 -2.612021 -11.096854 -3.272683 -20.617589 -9.101839 -35.618226 -66.173597 0.000000 0.000000 0.000000 -28.639630 6.858661 -0.390236 22.480607 1.416850 0.765712 4.636943 53.267278 -77.013143 
0.013552 0.972702 0.019487 -2.729637 2.288442 6.399704 0.000000 0.000000 0.000000 -3.873370 -1.806089 -7.834490 7.413168 -0.990352 4.635430 -11.244318 -17.930691 8.273772 0.000000 0.000000 0.000000 3.111960 1.191617 -7.033897 -3.905122 0.633868 0.120989 6.417605 9.206569 7.469796 0.000000 0.000000 0.000000 4.660190 1.739072 -21.832794 -7.747247 4.465605 27.307561 5.905195 4.337970 -21.334085 0.000000 0.000000 0.000000 -1.264597 0.216467 11.719261 0.000000 0.000000 0.000000 30.125926 -11.003639 -2.703663 -11.607585 -3.021119 -19.056982 -9.380966 -35.831589 -65.896970 0.000000 0.000000 0.000000 -28.419323 6.397934 0.055478 22.279085 1.379607 0.836750 4.056457 53.695910 -78.183957 
0.014279 0.973037 0.021772 -2.959176 2.277439 6.562732 0.000000 0.000000 0.000000 -3.649355 -1.798212 -7.797801 7.424882 -0.981519 4.521810 -11.235075 -17.992638 8.236049 0.000000 0.000000 0.000000 3.276973 1.210411 -7.131886 -3.877051 0.639197 0.226251 6.516202 9.383385 7.543925 0.000000 0.000000 0.000000 4.780730 1.738999 -21.860140 -7.286744 4.249118 27.119146 5.742410 3.893363 -21.405688 0.000000 0.000000 0.000000 -0.805172 -0.020155 11.253401 0.000000 0.000000 0.000000 29.994403 -10.996801 -2.795581 -12.155309 -2.769038 -17.553316 -9.673929 -36.173743 -65.773291 0.000000 0.000000 0.000000 -28.125500 5.919109 0.498974 22.113490 1.415199 0.692618 4.331106 54.261832 -78.176516 
0.014595 0.973467 0.023461 -3.163396 2.283141 6.673500 0.000000 0.000000 0.000000 -3.453672 -1.801953 -7.803074 7.458025 -0.986389 4.531357 -11.194787 -17.999832 8.178302 0.000000 0.000000 0.000000 3.424689 1.219112 -7.176648 -3.836070 0.637280 0.275703 6.639545 9.552485 7.672860 0.000000 0.000000 0.000000 4.954884 1.728064 -21.813419 -6.963810 4.093956 26.951228 5.642859 3.505119 -21.448238 0.000000 0.000000 0.000000 -0.490261 -0.175791 10.899504 0.000000 0.000000 0.000000 29.782284 -10.987196 -2.885812 -12.809306 -2.555633 -16.255805 -9.660859 -36.347440 -66.029534 0.000000 0.000000 0.000000 -27.898620 5.532970 0.859644 22.121283 1.509222 0.413061 5.377514 54.732187 -76.977498 
0.014535 0.973911 0.024594 -3.286766 2.298004 6.762430 0.000000 0.000000 0.000000 -3.309977 -1.805537 -7.809907 7.444270 -0.982963 4.510283 -11.156685 -17.924682 8.159793 0.000000 0.000000 0.000000 3.497228 1.221916 -7.191606 -3.766649 0.625633 0.270508 6.763456 9.749296 7.784303 0.000000 0.000000 0.000000 5.083765 1.728852 -21.852314 -6.690722 3.986841 27.023183 5.542762 3.184234 -21.576399 0.000000 0.000000 0.000000 -0.431480 -0.184028 10.548715 0.000000 0.000000 0.000000 29.549589 -11.224615 -3.192031 -13.310248 -2.333648 -15.019490 -9.011831 -36.210505 -67.074399 0.000000 0.000000 0.000000 -27.767593 5.378649 1.022417 22.210532 1.618742 0.119826 6.774476 54.638778 -74.868828 
0.014019 0.974147 0.025252 -3.341046 2.280453 6.890335 0.000000 0.000000 0.000000 -3.193618 -1.820710 -7.861418 7.415999 -0.974919 4.458451 -11.119277 -17.868210 8.134874 0.000000 0.000000 0.000000 3.530336 1.237953 -7.275379 -3.717502 0.616410 0.257717 6.853454 9.957533 7.819040 0.000000 0.000000 0.000000 5.129140 1.732764 -21.897161 -6.527483 3.909312 26.929453 5.507081 2.940136 -21.721981 0.000000 0.000000 0.000000 -0.439773 -0.163093 10.406478 0.000000 0.000000 0.000000 29.426498 -11.374124 -3.393948 -13.920799 -2.142710 -13.939794 -8.495474 -35.752669 -67.499222 0.000000 0.000000 0.000000 -27.709680 5.327972 1.102356 22.245308 1.606158 0.174999 8.487027 54.405330 -72.202693 
0.013223 0.974232 0.025517 -3.395263 2.267005 7.037983 0.000000 0.000000 0.000000 -3.098422 -1.844128 -7.945968 7.466242 -0.971525 4.355201 -11.158763 -17.848727 8.200073 0.000000 0.000000 0.000000 3.598797 1.255456 -7.366319 -3.700621 0.603808 0.150477 6.921485 10.075702 7.871559 0.000000 0.000000 0.000000 5.256675 1.731921 -21.925114 -6.443988 3.859181 26.776063 5.458954 2.804858 -21.841902 0.000000 0.000000 0.000000 -0.489820 -0.122126 10.238501 0.000000 0.000000 0.000000 29.167104 -11.358350 -3.439174 -14.288675 -1.990246 -13.139503 -8.471475 -35.259441 -66.926387 0.000000 0.000000 0.000000 -27.657707 5.234979 1.199061 22.000214 1.495562 0.452639 8.126362 54.829554 -73.029886 
